<svg xmlns="http://www.w3.org/2000/svg" id="Layer_1" data-name="Layer 1" viewBox="0 0 720 720"><defs><style>.cls-1{fill:#2c2e38}</style></defs><title>Artboard 1</title><path d="M567.64,393.82H253.83l-56.37-169.1H393.83v77.54L355,263.47a16.91,16.91,0,1,0-23.92,23.92L398.76,355a16.87,16.87,0,0,0,23.92,0l67.64-67.64a16.91,16.91,0,0,0-23.92-23.92l-38.75,38.79V224.72H624Zm29.1,169.1a33.82,33.82,0,1,1-33.82-33.82A33.88,33.88,0,0,1,596.74,562.92Zm-287.47,0a33.82,33.82,0,1,1-33.82-33.82A33.88,33.88,0,0,1,309.28,562.92Zm338.2-372H427.64V106.35a16.91,16.91,0,1,0-33.82,0V190.9H186.19L156.2,101a16.86,16.86,0,0,0-16-11.55H72.54a16.91,16.91,0,1,0,0,33.82H128l29.84,89.52c.07.24.18.49.24.74l67.5,202.53,27.65,83a67.78,67.78,0,1,0,80.71,30H504.45a67.58,67.58,0,1,0,58.48-33.82H287.65L265.1,427.64H579.83a16.86,16.86,0,0,0,16-11.55L663.5,213.17a16.92,16.92,0,0,0-16-22.27Z" class="cls-1"/></svg>