<svg xmlns="http://www.w3.org/2000/svg" id="Layer_1" data-name="Layer 1" viewBox="0 0 720 720"><defs><style>.cls-1{fill:#2c2e38}</style></defs><title>Artboard 1</title><path d="M606.93,284.34c-3.2,5.1-6.41,10.26-9.52,15.33V491.51c-.1,20-10.16,30.27-30.21,30.59-4.75.1-9.59.16-14.42.16l-22.49-.1c-3.62,0-7.15,0-10.67.1-24,.16-45.06,6.73-64.49,20-13.63,9.27-27.58,18.64-41.27,27.81l-4.1,2.69c-12.8,8.53-28.8,19.28-43.81,29.54-2.54,1.73-4.42,2.88-6.58,2.88s-4-1.15-6.64-2.95c-13.95-9.52-28.22-19.11-42.1-28.38l-.48-.25c-15.58-10.43-30.75-20.59-45.44-30.7-20.27-13.95-42.27-20.68-67.12-20.75h-2l-26.91.1c-7.22,0-13.11,0-18.63-.16-18.47-.48-28.64-10.9-28.64-29.37-.16-59.23-.16-176.15-.1-233.91V239c0-22.58,10-32.65,32.32-32.75q43.93-.14,87.81-.09H512.16c5.33-8.63,10.68-17.16,16-25.75-16.58-.1-33.07-.1-49.55-.1H241.48q-43.83,0-87.81.1c-36.43,0-58.17,21.9-58.17,58.59l-.09,10.48c0,60.71,0,180.83.09,243.21,0,32.81,21.26,54.39,53.91,55.23,5.74.16,11.8.25,19.28.25l26.84-.16,2,.1c19.53,0,36.75,5.26,52.5,16.16,14.79,10.16,30.21,20.43,45.12,30.43l.64.42C309.59,604.51,324,614.1,338,623.69q21.32,14.53,42.49.1,21.89-15,44.71-30.11l1.57-1.16c14.2-9.42,28.64-19.11,42.91-28.89A87.94,87.94,0,0,1,519.8,548.1c3.53-.1,7-.1,10.48-.1l22.22.1c5,0,10.11,0,15-.1,30.94-.48,51.11-18.12,54.9-46.69a11.56,11.56,0,0,0,.74-4.1V258.07Z" class="cls-1"/><path d="M472.05,270.71q-7.75,12.31-15.34,24.63a2.58,2.58,0,0,0-.32.64H194.14a12.63,12.63,0,0,1,0-25.27Z" class="cls-1"/><path d="M440.3,352.35l-3.94,17.22-1.9,8.05H194.14a12.64,12.64,0,0,1,0-25.28Z" class="cls-1"/><path d="M194.17,434.1h330.4a12.64,12.64,0,0,1,0,25.28H194.17a12.64,12.64,0,0,1,0-25.28Z" class="cls-1"/><path d="M519.58,341c-7.67,6.35-15.43,12.67-23.19,19.11-1.7,1.41-2.85,1.5-4.36.48-2.27-1.6-4.65-2.95-6.83-4.46a2.79,2.79,0,0,1-1-2.46c2.57-11.35,5.2-22.42,7.86-33.81a5.45,5.45,0,0,1,.39-.76c10.13,6.35,20.07,12.67,30.47,19.11A40.34,40.34,0,0,1,519.58,341Zm67.56-208.42L581,142.15q-51.81,83.07-103.36,166.21a33.66,33.66,0,0,0-3.87,9.08c-5.58,23.66-11.07,47.33-16.48,70.8a25.89,25.89,0,0,0-.87,7.48c.3,5.48,4.07,9.36,9.18,9.36a12.14,12.14,0,0,0,4.84-1.12,34.23,34.23,0,0,0,6.45-4.27l10.32-8.43c12.41-10,24.69-20.17,37-30.28l1.51-1.31c5.39-4.46,11-9,15.33-16,23.47-37.78,46.85-75.33,70.23-113l35.69-57.37c.58-.67,1-1.41,1.51-2.18Z" class="cls-1"/><path d="M665.36,108.09c-9.75-6.22-19.6-12.29-29.47-18.32-9.27-5.71-20.72-2.27-27.32,8.11-3.24,5.07-6.35,10.14-9.5,15.2l-2.59,4.1c-.2.39-.45.83-.64,1.22l-.32-.19L600,121l1.31.83L652,153.27l5.39,3.31,3.82-6c3-4.75,6-9.49,8.88-14.33C676.64,125.63,674.69,114.05,665.36,108.09Z" class="cls-1"/></svg>