<svg id="Layer_1" data-name="Layer 1" xmlns="http://www.w3.org/2000/svg" viewBox="0 0 720 720"><defs><style>.cls-1{fill:#2c2e38;}</style></defs><title>Artboard 1</title><path class="cls-1" d="M359.78,164.64h0a18.88,18.88,0,0,0-18.68,19.26V360a18.91,18.91,0,0,0,10.42,16.7L477.31,439.6A18.87,18.87,0,1,0,494.22,406L378.85,348.21V183.9A18.88,18.88,0,0,0,359.78,164.64ZM360,77C203.89,77,77,203.91,77,360S203.89,643,360,643c101.94,0,192.68-53.36,242.54-134.63,13.2-21.48-19-41.3-32.24-19.85-43,70.16-121.56,116.75-210.3,116.75A245.29,245.29,0,1,1,558.29,215.54L516,203.35a18.88,18.88,0,0,0-10.21,36.36l88.05,25.16a18.85,18.85,0,0,0,23.19-13l25.16-88.05a18.82,18.82,0,1,0-36.16-10.42l-13,45.4A283.51,283.51,0,0,0,360,77Z"/></svg>