<svg xmlns="http://www.w3.org/2000/svg"><symbol id="star" viewBox="0 0 720 720"><path fill="inherit" d="M619.39,334.15c-8.3,8-44.35,39.9-45.87,41.2-.42.36-38.53,34.29-69.24,61.16,6.84,30.69,28.25,126.84,32.73,149,.32,1.49.74,3.36,1.17,5.41,5.82,26.45,8.75,44.25-2.3,50.25A16.43,16.43,0,0,1,528,643c-7.56,0-17.94-4-33.66-13-9.93-5.69-50.39-31.07-52.09-32.2-.49-.28-47.39-29.56-82.27-51.84C325,568.3,278.1,597.58,277.68,597.86c-1.73,1.13-42.16,26.51-52.08,32.2-15.72,9-26.1,13-33.66,13a16.64,16.64,0,0,1-7.91-1.84c-11.09-6-8.09-23.8-2.33-50.25.46-2,.85-3.91,1.17-5.41,4.48-22.17,25.92-118.32,32.77-149-30.72-26.88-68.86-60.8-69.24-61.16-1.48-1.34-37.57-33.22-45.83-41.2-18.05-17.37-24.83-28.29-23.41-37.75,1.91-12.85,19-15.6,44.77-18.32,2-.22,3.85-.39,5.33-.57,21.51-2.61,113.91-12,143.19-14.93,13.49-33.79,48.37-120.87,57-141.14.61-1.46,1.27-3.15,2.09-5.13,9.32-23,16.8-39.33,28.29-39.33l1.58.1c.25,0,.42.14.68.18a3.62,3.62,0,0,1,.67-.18l1.59-.1c11.51,0,19,16.31,28.29,39.33.77,2,1.48,3.67,2.08,5.13,8.54,20.27,43.44,107.35,56.92,141.14,29.23,2.93,121.68,12.29,143.19,14.93,1.48.18,3.28.35,5.33.57,25.81,2.72,42.87,5.47,44.77,18.32C644.18,305.87,637.4,316.78,619.39,334.15Z"/></symbol><symbol id="cart" viewBox="0 0 720 720"><path fill="inherit" d="M567.64,393.82H253.83l-56.37-169.1H393.83v77.54L355,263.47a16.91,16.91,0,1,0-23.92,23.92L398.76,355a16.87,16.87,0,0,0,23.92,0l67.64-67.64a16.91,16.91,0,0,0-23.92-23.92l-38.75,38.79V224.72H624Zm29.1,169.1a33.82,33.82,0,1,1-33.82-33.82A33.88,33.88,0,0,1,596.74,562.92Zm-287.47,0a33.82,33.82,0,1,1-33.82-33.82A33.88,33.88,0,0,1,309.28,562.92Zm338.2-372H427.64V106.35a16.91,16.91,0,1,0-33.82,0V190.9H186.19L156.2,101a16.86,16.86,0,0,0-16-11.55H72.54a16.91,16.91,0,1,0,0,33.82H128l29.84,89.52c.07.24.18.49.24.74l67.5,202.53,27.65,83a67.78,67.78,0,1,0,80.71,30H504.45a67.58,67.58,0,1,0,58.48-33.82H287.65L265.1,427.64H579.83a16.86,16.86,0,0,0,16-11.55L663.5,213.17a16.92,16.92,0,0,0-16-22.27Z"/></symbol><symbol id="clock" viewBox="0 0 720 720"><path fill="inherit" d="M359.78,164.64h0a18.88,18.88,0,0,0-18.68,19.26V360a18.91,18.91,0,0,0,10.42,16.7L477.31,439.6A18.87,18.87,0,1,0,494.22,406L378.85,348.21V183.9A18.88,18.88,0,0,0,359.78,164.64ZM360,77C203.89,77,77,203.91,77,360S203.89,643,360,643c101.94,0,192.68-53.36,242.54-134.63,13.2-21.48-19-41.3-32.24-19.85-43,70.16-121.56,116.75-210.3,116.75A245.29,245.29,0,1,1,558.29,215.54L516,203.35a18.88,18.88,0,0,0-10.21,36.36l88.05,25.16a18.85,18.85,0,0,0,23.19-13l25.16-88.05a18.82,18.82,0,1,0-36.16-10.42l-13,45.4A283.51,283.51,0,0,0,360,77Z"/></symbol><symbol id="receipt" viewBox="0 0 720 720"><path fill="inherit" d="M442.37,395.31a11.77,11.77,0,0,0,11.8,11.76h47.07a11.77,11.77,0,0,0,0-23.54H454.16A11.79,11.79,0,0,0,442.37,395.31Z"/><path fill="inherit" d="M501.23,430.61H454.16a11.78,11.78,0,1,0,0,23.57h47.07a11.78,11.78,0,0,0,0-23.57Z"/><path fill="inherit" d="M218.79,407.07H360a11.77,11.77,0,0,0,0-23.54H218.79a11.77,11.77,0,0,0,0,23.54Z"/><path fill="inherit" d="M501.23,524.76H454.16a11.77,11.77,0,1,0,0,23.54h47.07a11.77,11.77,0,0,0,0-23.54Z"/><path fill="inherit" d="M218.79,548.3h47.07a11.77,11.77,0,0,0,0-23.54H218.79a11.77,11.77,0,0,0,0,23.54Z"/><path fill="inherit" d="M218.79,454.15H290v0a11.75,11.75,0,0,0,0-23.48v0h-71.2a11.77,11.77,0,0,0,0,23.54Z"/><path fill="inherit" d="M218.79,501.22A11.78,11.78,0,1,0,207,489.46,11.76,11.76,0,0,0,218.79,501.22Z"/><path fill="inherit" d="M254.1,489.46a11.76,11.76,0,1,0,11.76-11.8A11.78,11.78,0,0,0,254.1,489.46Z"/><path fill="inherit" d="M312.94,477.69a11.78,11.78,0,1,0,11.76,11.8A11.77,11.77,0,0,0,312.94,477.69Z"/><path fill="inherit" d="M360,477.69a11.78,11.78,0,1,0,11.76,11.8A11.77,11.77,0,0,0,360,477.69Z"/><path fill="inherit" d="M407.06,477.69a11.78,11.78,0,1,0,11.8,11.8A11.79,11.79,0,0,0,407.06,477.69Z"/><path fill="inherit" d="M454.16,501.22a11.78,11.78,0,1,0-11.8-11.76A11.78,11.78,0,0,0,454.16,501.22Z"/><path fill="inherit" d="M501.23,477.69A11.78,11.78,0,1,0,513,489.48,11.77,11.77,0,0,0,501.23,477.69Z"/><path fill="inherit" d="M411.32,301.16H308.7l-14.13-70.62H425.45ZM265.86,230.54h4.71l18.83,94.15H430.62l18.83-94.15h4.74a11.76,11.76,0,1,0,0-23.53H426.44l-39.25-54a11.75,11.75,0,1,0-19,13.82L397.38,207H322.74l29.19-40.17a11.75,11.75,0,1,0-19-13.82l-39.25,54h-27.8a11.76,11.76,0,0,0,0,23.53Z"/><path fill="inherit" d="M342.36,289.39a11.76,11.76,0,0,0,11.77-11.77V254.09a11.77,11.77,0,1,0-23.54,0v23.53A11.76,11.76,0,0,0,342.36,289.39Z"/><path fill="inherit" d="M377.67,289.39a11.76,11.76,0,0,0,11.76-11.77V254.09a11.77,11.77,0,1,0-23.54,0v23.53A11.76,11.76,0,0,0,377.67,289.39Z"/><path fill="inherit" d="M536.54,610.23l-14.27-7.13a49.65,49.65,0,0,0-42.07,0l-25.33,12.65a4.11,4.11,0,0,1-.68.06,4.31,4.31,0,0,1-.74-.06l-25.3-12.65a49.71,49.71,0,0,0-42.1,0l-25.33,12.65a4.19,4.19,0,0,1-1.42,0L334,603.11a49.71,49.71,0,0,0-42.1,0l-25.3,12.65a4.19,4.19,0,0,1-1.42,0l-25.3-12.65a49.78,49.78,0,0,0-42.13,0l-14.24,7.13V101.09H536.57V610.23ZM548.28,77.55H159.95V630.68c0,6.47,2.64,11.76,5.88,11.76s10.62-2.38,16.41-5.26l26-13a26.56,26.56,0,0,1,21.06,0l26,13a26.56,26.56,0,0,0,21.06,0l26-13a26.56,26.56,0,0,1,21.06,0l26,13a26.56,26.56,0,0,0,21.06,0l26-13a26.5,26.5,0,0,1,21,0l26,13a26.57,26.57,0,0,0,21.07,0l26-13a26.43,26.43,0,0,1,21,0l26,13c5.79,2.88,13.18,5.26,16.41,5.26s5.89-5.29,5.89-11.76V77.55Z"/></symbol><symbol id="gift" viewBox="0 0 720 720"><path fill="inherit" d="M298.14,130.27a44.19,44.19,0,0,0,0,88.37h44.18V174.46A44.24,44.24,0,0,0,298.14,130.27ZM360,254H298.14a79.53,79.53,0,1,1,79.53-79.53v61.86A17.67,17.67,0,0,1,360,254Z"/><path fill="inherit" d="M377.68,218.64h53a53,53,0,1,0-53-53Zm53,35.35H360a17.69,17.69,0,0,1-17.68-17.68v-70.7A88.37,88.37,0,1,1,430.7,254Z"/><path fill="inherit" d="M545.52,642.76H174.46a44.3,44.3,0,0,1-44.22-44.24V342.29a17.68,17.68,0,0,1,35.35,0V598.54a8.9,8.9,0,0,0,8.87,8.87H545.52a8.93,8.93,0,0,0,8.89-8.9V342.29a17.68,17.68,0,0,1,35.35,0V598.51A44.3,44.3,0,0,1,545.52,642.76Z"/><path fill="inherit" d="M121.4,254a8.82,8.82,0,0,0-8.83,8.83v53a8.82,8.82,0,0,0,8.83,8.83H598.63a8.81,8.81,0,0,0,8.8-8.83v-53a8.83,8.83,0,0,0-8.8-8.83ZM598.63,360H121.4a44.24,44.24,0,0,1-44.18-44.18v-53a44.24,44.24,0,0,1,44.18-44.18H598.63a44.23,44.23,0,0,1,44.15,44.18v53A44.23,44.23,0,0,1,598.63,360Z"/><path fill="inherit" d="M360,642.76a17.67,17.67,0,0,1-17.68-17.68V236.31a17.68,17.68,0,1,1,35.35,0V625.08A17.69,17.69,0,0,1,360,642.76Z"/></symbol><symbol id="rocket" viewBox="0 0 720 720"><path fill="inherit" d="M349.14,358.94a72.26,72.26,0,1,1,72.26,72.26A72.33,72.33,0,0,1,349.14,358.94Zm290.31,5.7,5-5.7-5-5.7c-5-5.7-124.28-139.72-274.46-139.72a534.74,534.74,0,0,0-58.27,3.14,73.75,73.75,0,0,0-72.8-62.92H99.44a23.9,23.9,0,0,0-23.88,23.88,24.45,24.45,0,0,0,1.62,8.71L118.47,292c-19.25,19.92-30.12,42.64-30.12,66.92,0,24.56,11.09,47.44,30.66,67.55L77.19,533.68a24.27,24.27,0,0,0-1.62,8.71,23.9,23.9,0,0,0,23.88,23.88H233.92A73.77,73.77,0,0,0,307,501.32,537.51,537.51,0,0,0,365,504.41C515.17,504.41,634.43,370.34,639.45,364.64Z"/></symbol><symbol id="search" viewBox="0 0 720 720"><path fill="inherit" d="M294,162.06c0,5.64-3.78,9.42-9.42,9.42-62.18,0-113.09,50.9-113.09,113.09,0,5.64-3.78,9.42-9.42,9.42s-9.42-3.78-9.42-9.42c0-72.54,59.4-131.93,131.93-131.93C290.18,152.64,294,156.42,294,162.06Zm53.69,17c-1.86,3.77-4.71,5.64-8.48,5.64-1.87,0-2.85,0-3.78-.93a71.14,71.14,0,0,0-15.07-6.58,9.55,9.55,0,1,1,6.62-17.92,132.64,132.64,0,0,1,17,7.56C348.65,168.63,350.51,174.34,347.65,179ZM284.54,454.2c-93.31,0-169.63-76.32-169.63-169.63s76.32-169.63,169.63-169.63,169.63,76.32,169.63,169.63S377.85,454.2,284.54,454.2ZM637,610.62,443.81,417.43a206.8,206.8,0,0,0,48-132.86c0-114-93.31-207.32-207.32-207.32S77.21,170.55,77.21,284.57s93.31,207.32,207.32,207.32a206.8,206.8,0,0,0,132.86-48L610.59,637A18.68,18.68,0,1,0,637,610.62Z"/></symbol><symbol id="pause" viewBox="0 0 720 720"><path fill="inherit" d="M360,603.41h0c-93.46,0-177.73-59.3-213.52-150.28s-16-195.65,50.09-265.27,165.5-90.44,251.88-52.76S591.1,261.53,591.1,360C591.1,494.43,487.63,603.41,360,603.41Zm0-531.1h0C249.53,72.32,150,142.41,107.67,249.9S88.76,481.15,166.88,563.42,362.45,670.3,464.53,625.78,633.13,476.36,633.13,360C633.13,201.11,510.85,72.32,360,72.32Z"/><path fill="inherit" d="M307.17,472.25h0a26.43,26.43,0,0,1-26.42-26.42V274.16c0-35.22,52.83-35.22,52.83,0V445.83A26.45,26.45,0,0,1,307.17,472.25Z"/><path fill="inherit" d="M412.83,472.25h0a26.42,26.42,0,0,1-26.41-26.42V274.16c0-35.22,52.83-35.22,52.83,0V445.83A26.43,26.43,0,0,1,412.83,472.25Z"/></symbol><symbol id="play" viewBox="0 0 720 720"><path fill="inherit" d="M327.91,245.71c-7.14-5.78-13-2.75-13,6.71V467.55c0,9.5,5.83,12.53,13,6.71L455.58,370.53c7.14-5.81,7.14-15.28,0-21.1Z"/><path fill="inherit" d="M360,603.41h0c-93.46,0-177.73-59.3-213.52-150.28s-16-195.65,50.09-265.27,165.5-90.44,251.88-52.76S591.1,261.53,591.1,360C591.1,494.43,487.63,603.41,360,603.41Zm0-531.1h0C249.53,72.32,150,142.41,107.67,249.9S88.76,481.15,166.88,563.42,362.45,670.3,464.53,625.78,633.13,476.36,633.13,360C633.13,201.11,510.85,72.32,360,72.32Z"/></symbol><symbol id="rewind" viewBox="0 0 720 720"><path fill="inherit" d="M476.43,273v173.9c0,10-5.3,14.49-13.76,8.9L370.58,399v46.82c1.41,9.39-9.25,15.37-15.88,8.91l-142.88-87c-8.46-4.47-8.46-13.38-1.06-17.85L354.7,263c6.63-6.46,17.26-.48,15.88,8.91v47.94L462.64,263C471.13,259.68,476.43,263,476.43,273ZM360,605.24h0c-94.16,0-179.06-59.74-215.12-151.4s-16.11-197.12,50.47-267.26,166.74-91.12,253.76-53.16S592.83,260.79,592.83,360C592.83,495.43,488.58,605.24,360,605.24Zm0-535.07h0c-111.3,0-211.62,70.62-254.22,178.91s-19.06,233,59.65,315.87,197,107.69,299.88,62.83S635.17,477.23,635.17,360C635.17,199.92,512,70.16,360,70.16Z"/></symbol></svg>