<svg id="Layer_1" data-name="Layer 1" xmlns="http://www.w3.org/2000/svg" viewBox="0 0 720 720"><defs><style>.cls-1{fill:#2c2e38;}</style></defs><title>Artboard 1</title><path class="cls-1" d="M360,603.41h0c-93.46,0-177.73-59.3-213.52-150.28s-16-195.65,50.09-265.27,165.5-90.44,251.88-52.76S591.1,261.53,591.1,360C591.1,494.43,487.63,603.41,360,603.41Zm0-531.1h0C249.53,72.32,150,142.41,107.67,249.9S88.76,481.15,166.88,563.42,362.45,670.3,464.53,625.78,633.13,476.36,633.13,360C633.13,201.11,510.85,72.32,360,72.32Z"/><path class="cls-1" d="M307.17,472.25h0a26.43,26.43,0,0,1-26.42-26.42V274.16c0-35.22,52.83-35.22,52.83,0V445.83A26.45,26.45,0,0,1,307.17,472.25Z"/><path class="cls-1" d="M412.83,472.25h0a26.42,26.42,0,0,1-26.41-26.42V274.16c0-35.22,52.83-35.22,52.83,0V445.83A26.43,26.43,0,0,1,412.83,472.25Z"/></svg>