<svg xmlns="http://www.w3.org/2000/svg" id="Layer_1" data-name="Layer 1" viewBox="0 0 720 720"><defs><style>.cls-1{fill:#2c2e38}</style></defs><title>Artboard 1</title><path d="M327.91,245.71c-7.14-5.78-13-2.75-13,6.71V467.55c0,9.5,5.83,12.53,13,6.71L455.58,370.53c7.14-5.81,7.14-15.28,0-21.1Z" class="cls-1"/><path d="M360,603.41h0c-93.46,0-177.73-59.3-213.52-150.28s-16-195.65,50.09-265.27,165.5-90.44,251.88-52.76S591.1,261.53,591.1,360C591.1,494.43,487.63,603.41,360,603.41Zm0-531.1h0C249.53,72.32,150,142.41,107.67,249.9S88.76,481.15,166.88,563.42,362.45,670.3,464.53,625.78,633.13,476.36,633.13,360C633.13,201.11,510.85,72.32,360,72.32Z" class="cls-1"/></svg>