<svg xmlns="http://www.w3.org/2000/svg" id="Layer_1" data-name="Layer 1" viewBox="0 0 720 720"><defs><style>.cls-1{fill:#2c2e38}</style></defs><title>Artboard 1</title><path d="M442.37,395.31a11.77,11.77,0,0,0,11.8,11.76h47.07a11.77,11.77,0,0,0,0-23.54H454.16A11.79,11.79,0,0,0,442.37,395.31Z" class="cls-1"/><path d="M501.23,430.61H454.16a11.78,11.78,0,1,0,0,23.57h47.07a11.78,11.78,0,0,0,0-23.57Z" class="cls-1"/><path d="M218.79,407.07H360a11.77,11.77,0,0,0,0-23.54H218.79a11.77,11.77,0,0,0,0,23.54Z" class="cls-1"/><path d="M501.23,524.76H454.16a11.77,11.77,0,1,0,0,23.54h47.07a11.77,11.77,0,0,0,0-23.54Z" class="cls-1"/><path d="M218.79,548.3h47.07a11.77,11.77,0,0,0,0-23.54H218.79a11.77,11.77,0,0,0,0,23.54Z" class="cls-1"/><path d="M218.79,454.15H290v0a11.75,11.75,0,0,0,0-23.48v0h-71.2a11.77,11.77,0,0,0,0,23.54Z" class="cls-1"/><path d="M218.79,501.22A11.78,11.78,0,1,0,207,489.46,11.76,11.76,0,0,0,218.79,501.22Z" class="cls-1"/><path d="M254.1,489.46a11.76,11.76,0,1,0,11.76-11.8A11.78,11.78,0,0,0,254.1,489.46Z" class="cls-1"/><path d="M312.94,477.69a11.78,11.78,0,1,0,11.76,11.8A11.77,11.77,0,0,0,312.94,477.69Z" class="cls-1"/><path d="M360,477.69a11.78,11.78,0,1,0,11.76,11.8A11.77,11.77,0,0,0,360,477.69Z" class="cls-1"/><path d="M407.06,477.69a11.78,11.78,0,1,0,11.8,11.8A11.79,11.79,0,0,0,407.06,477.69Z" class="cls-1"/><path d="M454.16,501.22a11.78,11.78,0,1,0-11.8-11.76A11.78,11.78,0,0,0,454.16,501.22Z" class="cls-1"/><path d="M501.23,477.69A11.78,11.78,0,1,0,513,489.48,11.77,11.77,0,0,0,501.23,477.69Z" class="cls-1"/><path d="M411.32,301.16H308.7l-14.13-70.62H425.45ZM265.86,230.54h4.71l18.83,94.15H430.62l18.83-94.15h4.74a11.76,11.76,0,1,0,0-23.53H426.44l-39.25-54a11.75,11.75,0,1,0-19,13.82L397.38,207H322.74l29.19-40.17a11.75,11.75,0,1,0-19-13.82l-39.25,54h-27.8a11.76,11.76,0,0,0,0,23.53Z" class="cls-1"/><path d="M342.36,289.39a11.76,11.76,0,0,0,11.77-11.77V254.09a11.77,11.77,0,1,0-23.54,0v23.53A11.76,11.76,0,0,0,342.36,289.39Z" class="cls-1"/><path d="M377.67,289.39a11.76,11.76,0,0,0,11.76-11.77V254.09a11.77,11.77,0,1,0-23.54,0v23.53A11.76,11.76,0,0,0,377.67,289.39Z" class="cls-1"/><path d="M536.54,610.23l-14.27-7.13a49.65,49.65,0,0,0-42.07,0l-25.33,12.65a4.11,4.11,0,0,1-.68.06,4.31,4.31,0,0,1-.74-.06l-25.3-12.65a49.71,49.71,0,0,0-42.1,0l-25.33,12.65a4.19,4.19,0,0,1-1.42,0L334,603.11a49.71,49.71,0,0,0-42.1,0l-25.3,12.65a4.19,4.19,0,0,1-1.42,0l-25.3-12.65a49.78,49.78,0,0,0-42.13,0l-14.24,7.13V101.09H536.57V610.23ZM548.28,77.55H159.95V630.68c0,6.47,2.64,11.76,5.88,11.76s10.62-2.38,16.41-5.26l26-13a26.56,26.56,0,0,1,21.06,0l26,13a26.56,26.56,0,0,0,21.06,0l26-13a26.56,26.56,0,0,1,21.06,0l26,13a26.56,26.56,0,0,0,21.06,0l26-13a26.5,26.5,0,0,1,21,0l26,13a26.57,26.57,0,0,0,21.07,0l26-13a26.43,26.43,0,0,1,21,0l26,13c5.79,2.88,13.18,5.26,16.41,5.26s5.89-5.29,5.89-11.76V77.55Z" class="cls-1"/></svg>