<svg xmlns="http://www.w3.org/2000/svg" id="Layer_1" data-name="Layer 1" viewBox="0 0 720 720"><defs><style>.cls-1{fill:#2c2e38}</style></defs><title>Artboard 1</title><path d="M298.14,130.27a44.19,44.19,0,0,0,0,88.37h44.18V174.46A44.24,44.24,0,0,0,298.14,130.27ZM360,254H298.14a79.53,79.53,0,1,1,79.53-79.53v61.86A17.67,17.67,0,0,1,360,254Z" class="cls-1"/><path d="M377.68,218.64h53a53,53,0,1,0-53-53Zm53,35.35H360a17.69,17.69,0,0,1-17.68-17.68v-70.7A88.37,88.37,0,1,1,430.7,254Z" class="cls-1"/><path d="M545.52,642.76H174.46a44.3,44.3,0,0,1-44.22-44.24V342.29a17.68,17.68,0,0,1,35.35,0V598.54a8.9,8.9,0,0,0,8.87,8.87H545.52a8.93,8.93,0,0,0,8.89-8.9V342.29a17.68,17.68,0,0,1,35.35,0V598.51A44.3,44.3,0,0,1,545.52,642.76Z" class="cls-1"/><path d="M121.4,254a8.82,8.82,0,0,0-8.83,8.83v53a8.82,8.82,0,0,0,8.83,8.83H598.63a8.81,8.81,0,0,0,8.8-8.83v-53a8.83,8.83,0,0,0-8.8-8.83ZM598.63,360H121.4a44.24,44.24,0,0,1-44.18-44.18v-53a44.24,44.24,0,0,1,44.18-44.18H598.63a44.23,44.23,0,0,1,44.15,44.18v53A44.23,44.23,0,0,1,598.63,360Z" class="cls-1"/><path d="M360,642.76a17.67,17.67,0,0,1-17.68-17.68V236.31a17.68,17.68,0,1,1,35.35,0V625.08A17.69,17.69,0,0,1,360,642.76Z" class="cls-1"/></svg>