<svg id="Layer_1" data-name="Layer 1" xmlns="http://www.w3.org/2000/svg" viewBox="0 0 720 720"><defs><style>.cls-1{fill:#2c2e38;}</style></defs><title>Artboard 1</title><path class="cls-1" d="M476.43,273v173.9c0,10-5.3,14.49-13.76,8.9L370.58,399v46.82c1.41,9.39-9.25,15.37-15.88,8.91l-142.88-87c-8.46-4.47-8.46-13.38-1.06-17.85L354.7,263c6.63-6.46,17.26-.48,15.88,8.91v47.94L462.64,263C471.13,259.68,476.43,263,476.43,273ZM360,605.24h0c-94.16,0-179.06-59.74-215.12-151.4s-16.11-197.12,50.47-267.26,166.74-91.12,253.76-53.16S592.83,260.79,592.83,360C592.83,495.43,488.58,605.24,360,605.24Zm0-535.07h0c-111.3,0-211.62,70.62-254.22,178.91s-19.06,233,59.65,315.87,197,107.69,299.88,62.83S635.17,477.23,635.17,360C635.17,199.92,512,70.16,360,70.16Z"/></svg>