<svg xmlns="http://www.w3.org/2000/svg" id="Layer_1" data-name="Layer 1" viewBox="0 0 720 720"><defs><style>.cls-1{fill:#2c2e38}</style></defs><title>Artboard 1</title><path d="M349.14,358.94a72.26,72.26,0,1,1,72.26,72.26A72.33,72.33,0,0,1,349.14,358.94Zm290.31,5.7,5-5.7-5-5.7c-5-5.7-124.28-139.72-274.46-139.72a534.74,534.74,0,0,0-58.27,3.14,73.75,73.75,0,0,0-72.8-62.92H99.44a23.9,23.9,0,0,0-23.88,23.88,24.45,24.45,0,0,0,1.62,8.71L118.47,292c-19.25,19.92-30.12,42.64-30.12,66.92,0,24.56,11.09,47.44,30.66,67.55L77.19,533.68a24.27,24.27,0,0,0-1.62,8.71,23.9,23.9,0,0,0,23.88,23.88H233.92A73.77,73.77,0,0,0,307,501.32,537.51,537.51,0,0,0,365,504.41C515.17,504.41,634.43,370.34,639.45,364.64Z" class="cls-1"/></svg>