<svg xmlns="http://www.w3.org/2000/svg" id="Layer_1" data-name="Layer 1" viewBox="0 0 720 720"><defs><style>.cls-1{fill:#2c2e38}</style></defs><title>Artboard 1</title><path d="M294,162.06c0,5.64-3.78,9.42-9.42,9.42-62.18,0-113.09,50.9-113.09,113.09,0,5.64-3.78,9.42-9.42,9.42s-9.42-3.78-9.42-9.42c0-72.54,59.4-131.93,131.93-131.93C290.18,152.64,294,156.42,294,162.06Zm53.69,17c-1.86,3.77-4.71,5.64-8.48,5.64-1.87,0-2.85,0-3.78-.93a71.14,71.14,0,0,0-15.07-6.58,9.55,9.55,0,1,1,6.62-17.92,132.64,132.64,0,0,1,17,7.56C348.65,168.63,350.51,174.34,347.65,179ZM284.54,454.2c-93.31,0-169.63-76.32-169.63-169.63s76.32-169.63,169.63-169.63,169.63,76.32,169.63,169.63S377.85,454.2,284.54,454.2ZM637,610.62,443.81,417.43a206.8,206.8,0,0,0,48-132.86c0-114-93.31-207.32-207.32-207.32S77.21,170.55,77.21,284.57s93.31,207.32,207.32,207.32a206.8,206.8,0,0,0,132.86-48L610.59,637A18.68,18.68,0,1,0,637,610.62Z" class="cls-1"/></svg>